<?xml version="1.0" standalone="no"?>
<!DOCTYPE svg PUBLIC "-//W3C//DTD SVG 20010904//EN"
 "http://www.w3.org/TR/2001/REC-SVG-20010904/DTD/svg10.dtd">
<svg version="1.0" xmlns="http://www.w3.org/2000/svg"
 width="300.000000pt" height="300.000000pt" viewBox="0 0 300.000000 300.000000"
 preserveAspectRatio="xMidYMid meet">
<metadata>
Created by potrace 1.14, written by Peter Selinger 2001-2017
</metadata>
<g transform="translate(0.000000,300.000000) scale(0.100000,-0.100000)"
fill="#000000" stroke="none">
<path d="M1320 2990 c-142 -20 -179 -29 -305 -72 -415 -142 -746 -456 -908
-864 -77 -193 -107 -363 -102 -584 5 -248 53 -442 164 -660 24 -48 89 -154
112 -185 161 -210 335 -356 554 -464 107 -53 232 -101 305 -117 14 -3 34 -7
45 -9 11 -3 43 -10 70 -16 35 -8 312 -13 898 -16 l847 -4 -1 813 c-1 888 -2
908 -59 1108 -152 539 -625 960 -1190 1060 -79 14 -354 20 -430 10z m335 -860
c28 -7 88 -30 134 -52 69 -33 100 -56 166 -122 86 -87 128 -155 166 -271 22
-67 23 -85 27 -453 l3 -384 -378 5 c-315 3 -388 7 -438 21 -281 79 -475 324
-479 606 -1 105 5 152 29 225 58 175 215 337 386 401 111 42 271 52 384 24z"/>
</g>
</svg>
